<svg width="1570" height="3444" viewBox="0 0 1570 3444" fill="none" xmlns="http://www.w3.org/2000/svg">
<path d="M86.8021 1569.33C90.3852 1586.11 94.4341 1602.74 98.7696 1619.3C103.105 1635.86 107.727 1652.37 112.672 1668.77C122.418 1701.6 133.113 1734.1 144.758 1766.29C167.957 1830.66 194.705 1893.64 224.876 1954.93C228.585 1962.61 232.58 1970.15 236.414 1977.77L242.236 1989.17L248.256 2000.46C252.323 2007.95 256.264 2015.51 260.402 2022.97L272.943 2045.23L276.078 2050.8L279.339 2056.27L285.878 2067.21C290.232 2074.51 294.513 2081.8 299.1 2089.1L312.68 2110.73C317.284 2117.88 322.049 2124.94 326.725 2132.03L333.766 2142.67L341.076 2153.12L355.73 2174L370.923 2194.47L378.537 2204.68L386.42 2214.67L402.221 2234.74L418.578 2254.22L426.765 2263.94L435.239 2273.4L452.205 2292.33L444.716 2299.43L427.858 2280.11L419.42 2270.45L411.286 2260.54L395.055 2240.7L379.397 2220.38L371.586 2210.22L364.043 2199.85L348.994 2179.05L334.537 2157.86L327.37 2147.26L320.419 2136.47C315.797 2129.28 311.103 2122.13 306.553 2114.87L293.188 2092.98C288.655 2085.69 284.463 2078.27 280.163 2070.86L273.75 2059.75L270.543 2054.28L267.461 2048.65L255.117 2026.14C251.051 2018.61 247.181 2010.96 243.204 2003.39L237.292 1992L231.612 1980.49C227.85 1972.79 223.927 1965.18 220.308 1957.41C190.841 1895.61 164.822 1832.16 142.376 1767.37C131.137 1734.97 120.829 1702.29 111.454 1669.31C106.724 1652.9 102.371 1636.26 98.1784 1619.65C93.9862 1603.03 90.1881 1586.14 86.8021 1569.33Z" fill="#F49321"/>
<path d="M134.976 1740.12C134.976 1740.12 175.25 1656.03 239.512 1666.81C239.584 1666.81 231.934 1737.75 134.976 1740.12Z" fill="#F49321"/>
<path d="M125.551 1712.5C125.551 1712.5 39.7543 1746.01 0 1693.48C0 1693.48 53.1192 1646.97 125.551 1712.5Z" fill="#F49321"/>
<path d="M167.226 1824.51C167.226 1824.51 81.4293 1858.01 41.6571 1805.5C41.5675 1805.5 94.7046 1758.96 167.226 1824.51Z" fill="#F49321"/>
<path d="M206.64 1920.44C206.64 1920.44 201.265 1827.04 262.554 1804.43C262.482 1804.43 289.911 1870.1 206.64 1920.44Z" fill="#F49321"/>
<path d="M237.829 1985.26C237.829 1985.26 148.682 2008.04 115.413 1951.05C115.413 1951.05 173.638 1911.32 237.829 1985.26Z" fill="#F49321"/>
<path d="M292.631 2086.53C292.631 2086.53 260.831 1998.74 312.929 1958.96C312.929 1959 357.951 2013.68 292.631 2086.53Z" fill="#F49321"/>
<path d="M1570 2108.41C1554.34 2117.93 1539.04 2128.06 1523.89 2138.36C1508.73 2148.67 1493.73 2159.25 1478.95 2170.12C1449.32 2191.75 1420.35 2214.24 1392.03 2237.6C1363.71 2260.96 1336.04 2285.09 1309.03 2310.01C1282.15 2334.96 1255.66 2360.51 1230.2 2387.01C1223.75 2393.56 1217.66 2400.36 1211.24 2407.08L1201.8 2417.13L1192.56 2427.36C1186.43 2434.2 1180.2 2440.95 1174.16 2447.88L1156.14 2468.76L1151.62 2473.98L1147.23 2479.3L1138.47 2489.94C1132.63 2497.05 1126.7 2504.07 1121.09 2511.37L1104.07 2533.07C1098.48 2540.37 1093.06 2547.81 1087.54 2555.18L1079.3 2566.23L1071.32 2577.5L1055.43 2600.06L1040.15 2623.06L1032.54 2634.57L1025.23 2646.28L1010.64 2669.72L996.707 2693.59L989.773 2705.52L983.216 2717.67L970.084 2741.96L960.338 2736.63L973.882 2712.3L980.654 2700.14L987.821 2688.19L1002.15 2664.34L1017.13 2640.92L1024.64 2629.21L1032.45 2617.73L1048.11 2594.79L1064.37 2572.3L1072.52 2561.07L1080.96 2550.12C1086.59 2542.83 1092.14 2535.4 1097.86 2528.13L1115.24 2506.53C1120.97 2499.24 1127.01 2492.29 1132.95 2485.23L1141.91 2474.65L1146.39 2469.38L1150.78 2464.07L1169.12 2443.35C1175.27 2436.48 1181.67 2429.78 1187.86 2423L1197.25 2412.84L1206.85 2402.9C1213.29 2396.3 1219.57 2389.55 1226.11 2383.06C1252 2356.81 1278.8 2331.53 1306.11 2306.87C1333.41 2282.21 1361.46 2258.39 1390.15 2235.41C1418.83 2212.43 1448.1 2190.22 1478.02 2168.95C1492.93 2158.26 1508.08 2147.92 1523.35 2137.76C1538.61 2127.6 1554.14 2117.75 1570 2108.41Z" fill="#613E78"/>
<path d="M1414.91 2218.37C1414.91 2218.37 1513.59 2231.03 1525.16 2301.82C1525.21 2301.74 1451.12 2318.61 1414.91 2218.37Z" fill="#613E78"/>
<path d="M1439.38 2198.84C1439.38 2198.84 1375.71 2121.05 1414.68 2061.27C1414.68 2061.27 1480.07 2100.41 1439.38 2198.84Z" fill="#613E78"/>
<path d="M1341.18 2281.32C1341.18 2281.32 1277.51 2203.53 1316.48 2143.72C1316.48 2143.72 1381.89 2182.88 1341.18 2281.32Z" fill="#613E78"/>
<path d="M1258.42 2355.93C1258.42 2355.93 1350.54 2317.79 1394.68 2373.73C1394.68 2373.73 1338.18 2425.27 1258.42 2355.93Z" fill="#613E78"/>
<path d="M1204.1 2411.18C1204.1 2411.18 1150.06 2326.17 1195.8 2271.56C1195.8 2271.54 1256.1 2318.41 1204.1 2411.18Z" fill="#613E78"/>
<path d="M1121.31 2503.69C1121.31 2503.69 1198.53 2439.85 1256.77 2480.32C1256.77 2480.32 1217.46 2546.38 1121.31 2503.69Z" fill="#613E78"/>
<path d="M932.212 3443.5C1274.56 3443.5 1552.09 3410.43 1552.09 3369.63C1552.09 3328.83 1274.56 3295.76 932.212 3295.76C589.866 3295.76 312.339 3328.83 312.339 3369.63C312.339 3410.43 589.866 3443.5 932.212 3443.5Z" fill="#350E16"/>
<path d="M287.257 1277.87C294.334 1306.61 302.987 1334.92 312.339 1362.99C321.69 1391.06 331.777 1418.82 342.669 1446.27C364.438 1501.15 389.224 1554.73 416.911 1606.77C420.315 1613.3 423.969 1619.68 427.481 1626.16L432.856 1635.82L438.374 1645.4C442.082 1651.77 445.683 1658.17 449.463 1664.5L460.822 1683.45L463.67 1688.17L466.644 1692.82L472.574 1702.1C476.533 1708.31 480.421 1714.54 484.577 1720.6L496.885 1738.84C501.06 1744.87 505.359 1750.84 509.587 1756.84L515.947 1765.81L522.54 1774.64L535.744 1792.24L549.413 1809.48L556.257 1818.07L563.423 1826.48L577.594 1843.27L592.249 1859.69L599.576 1867.86L607.155 1875.79L622.293 1891.66L616.023 1897.99L600.956 1881.79L593.414 1873.7L586.122 1865.36L571.575 1848.69L557.511 1831.58L550.488 1823.03L543.698 1814.29L530.172 1796.76L517.112 1778.89L510.591 1769.94L504.302 1760.82C500.11 1754.72 495.864 1748.69 491.761 1742.58L479.651 1724.05C475.53 1717.9 471.714 1711.59 467.809 1705.31L461.968 1695.9L459.048 1691.2L456.235 1686.42L444.913 1667.29C441.186 1660.9 437.657 1654.52 434.02 1647.99L428.645 1638.32L423.414 1628.55C419.974 1622.02 416.373 1615.54 413.059 1608.96C385.948 1556.43 361.772 1502.39 340.645 1447.09C330.099 1419.45 320.329 1391.53 311.335 1363.34C302.324 1335.08 294.011 1306.7 287.257 1277.87Z" fill="#F49321"/>
<path d="M333.551 1423.94C333.551 1423.94 366.086 1350.24 421.803 1357.76C421.803 1357.76 417.109 1419.18 333.551 1423.94Z" fill="#F49321"/>
<path d="M324.611 1400.36C324.611 1400.36 251.426 1431.75 215.721 1387.47C215.721 1387.47 260.384 1345.81 324.611 1400.36Z" fill="#F49321"/>
<path d="M363.522 1495.89C363.522 1495.89 290.356 1527.21 254.632 1482.98C254.632 1482.98 299.224 1441.32 363.522 1495.89Z" fill="#F49321"/>
<path d="M400.125 1577.66C400.125 1577.66 392.959 1497.19 445.254 1475.96C445.272 1475.89 470.73 1531.81 400.125 1577.66Z" fill="#F49321"/>
<path d="M428.791 1632.67C428.791 1632.67 352.472 1654.81 322.213 1606.53C322.284 1606.53 371.462 1570.64 428.791 1632.67Z" fill="#F49321"/>
<path d="M478.954 1718.56C478.954 1718.56 449.143 1643.78 493.036 1607.88C492.982 1607.88 533.328 1653.83 478.954 1718.56Z" fill="#F49321"/>
<path d="M877.032 2882.64L888.552 3306.02L703.683 3385.17L972.647 3352.98L970.461 2883.22L877.032 2882.64Z" fill="#EAA981"/>
<path d="M1228.6 1405.47C1228.98 1410.94 1074.67 1619.54 1075.05 1624.99C1075.43 1630.45 1131.43 3105.64 1131.43 3105.64L708.932 3125.16L840.538 1455.46L1228.6 1405.47Z" fill="#613E78"/>
<path d="M895.575 3303.68C895.575 3303.68 731.649 3374.01 806.446 3364.96C881.242 3355.91 976.122 3299.7 976.122 3299.7L981.694 3379.75C981.694 3379.75 661.796 3428.43 669.339 3407.77C676.881 3387.1 895.575 3303.68 895.575 3303.68Z" fill="#613E78"/>
<path d="M972.094 3111.46L882.249 3117.28L972.256 3150.55L972.094 3111.46Z" fill="#350E16"/>
<path d="M888.555 3306.01C888.555 3306.01 779.719 3358.74 817.466 3363.76C817.556 3363.76 714.399 3384.4 888.555 3306.01Z" fill="#350E16"/>
<path d="M779.286 2239.22L1110.7 2570.79L1103.05 2424.51L779.286 2239.22Z" fill="#350E16"/>
<path d="M831.313 2625.41L1180.9 2858.93L1120.31 3056.14L1261.8 2821.9L886.475 2548.65L831.313 2625.41Z" fill="#EAA981"/>
<path d="M1181.7 2854.91C1181.7 2854.91 1128.58 3018.73 1172.13 2956.16C1215.69 2893.58 1230.9 2796.84 1230.9 2796.84L1294.87 2840.87C1294.87 2840.87 1115.88 3115.2 1105.88 3095.61C1095.89 3076.02 1181.7 2854.91 1181.7 2854.91Z" fill="#613E78"/>
<path d="M1020 2755.89L1077.88 2685.87L1108.34 2708.49L1020 2755.89Z" fill="#350E16"/>
<path d="M1180.9 2858.92C1180.9 2858.92 1137.54 2991.16 1190.93 2923.65C1190.93 2923.69 1114.95 3063.36 1180.9 2858.92Z" fill="#350E16"/>
<path d="M802.738 1336.23L129.924 2151.98L912.81 2889.16L1147.59 2601.08L646.623 2108.59L1092.29 1543.06L802.738 1336.23Z" fill="#613E78"/>
<path d="M428.179 784.272C439.806 805.228 450.251 826.823 460.212 848.655C470.173 870.487 479.453 892.647 488.124 915.045C505.502 959.874 520.384 1005.67 532.698 1052.2C545.023 1098.78 554.347 1146.12 560.61 1193.94L561.792 1202.91L562.76 1211.9L564.677 1229.9L566.092 1247.94L566.791 1256.97L567.239 1266.09L568.134 1284.16L568.528 1302.26L568.708 1311.38L568.6 1320.49L568.385 1338.62L561.219 1338.37L561.631 1320.4L561.846 1311.43V1302.44L561.721 1284.47L561.058 1266.51L560.717 1257.52L560.144 1248.54L558.944 1230.6L557.278 1212.68L556.418 1203.73L555.343 1194.79C549.717 1147.1 541.016 1099.84 529.294 1053.31C517.597 1006.73 503.32 960.86 486.53 915.92C478.169 893.45 469.152 871.229 459.477 849.257C449.713 827.133 439.537 805.411 428.179 784.272Z" fill="#613E78"/>
<path d="M479.777 897.353C479.777 897.353 420.46 871.673 391.311 907.476C391.311 907.458 427.393 941.437 479.777 897.353Z" fill="#613E78"/>
<path d="M472.323 878.257C472.323 878.257 532.895 855.842 530.226 809.424C530.226 809.424 481.066 809.643 472.323 878.257Z" fill="#613E78"/>
<path d="M500.897 957.047C500.897 957.047 561.469 934.613 558.8 888.195C558.8 888.231 509.64 888.414 500.897 957.047Z" fill="#613E78"/>
<path d="M523.347 1026.3C523.347 1026.3 483.933 974.355 441.348 991.025C441.33 991.025 456.469 1038.65 523.347 1026.3Z" fill="#613E78"/>
<path d="M536.087 1075.25C536.087 1075.25 593.559 1045.58 585.444 999.837C585.444 999.837 536.66 1006.06 536.087 1075.25Z" fill="#613E78"/>
<path d="M552.798 1154.52C552.798 1154.52 529.992 1093.15 484.433 1096.47C484.433 1096.5 485.293 1146.53 552.798 1154.52Z" fill="#613E78"/>
<path d="M1494.56 584.174C1476.23 607.173 1459.2 631.23 1442.73 655.634C1426.27 680.038 1410.48 704.988 1395.54 730.322C1365.48 781.001 1338.26 833.369 1314.01 887.176C1310.91 893.87 1308.1 900.691 1305.05 907.44L1300.64 917.581L1296.45 927.813C1293.68 934.634 1290.79 941.437 1288.1 948.295L1280.17 968.941L1278.18 974.103L1276.39 979.319L1272.61 989.752C1270.12 996.683 1267.56 1003.6 1265.3 1010.62L1258.27 1031.61C1256.04 1038.65 1253.94 1045.73 1251.77 1052.77L1248.6 1063.33L1245.73 1074L1239.82 1095.32L1234.45 1116.8L1231.81 1127.55L1229.45 1138.34L1224.74 1159.99L1220.65 1181.72L1218.63 1192.66L1216.94 1203.6L1213.58 1225.49L1204.85 1224.18L1208.43 1202.18L1210.23 1191.24L1212.39 1180.29L1216.75 1158.41L1221.73 1136.7L1224.24 1125.85L1227.03 1115.07L1232.66 1093.53L1238.87 1072.16L1241.99 1061.47L1245.36 1050.87C1247.63 1043.81 1249.84 1036.74 1252.17 1029.69L1259.6 1008.61C1261.97 1001.57 1264.63 994.676 1267.21 987.727L1271.1 977.313L1273.04 972.115L1275.1 966.953L1283.34 946.325C1286.12 939.467 1289.09 932.701 1291.96 925.879L1296.29 915.665L1300.84 905.543C1303.91 898.813 1306.83 892.01 1310 885.334C1334.98 831.725 1362.91 779.595 1393.66 729.191C1409.01 704.009 1425.07 679.29 1441.84 655.032C1458.61 630.774 1475.95 606.954 1494.56 584.174Z" fill="#F49321"/>
<path d="M1407.6 709.49C1407.6 709.49 1485.01 691.689 1512.6 741.59C1512.67 741.627 1461.53 774.694 1407.6 709.49Z" fill="#F49321"/>
<path d="M1420.76 688.099C1420.76 688.099 1352.24 647.354 1365.49 591.725C1365.49 591.725 1425.01 602.997 1420.76 688.099Z" fill="#F49321"/>
<path d="M1369.1 777.14C1369.1 777.14 1300.57 736.394 1313.81 680.747C1313.81 680.747 1373.35 692.037 1369.1 777.14Z" fill="#F49321"/>
<path d="M1326.92 856.003C1326.92 856.003 1385.87 801.906 1433.84 831.69C1433.84 831.69 1405.27 885.969 1326.92 856.003Z" fill="#F49321"/>
<path d="M1300.91 912.453C1300.91 912.453 1237.69 863.627 1257.43 810.023C1257.43 810.023 1315.17 828.499 1300.91 912.453Z" fill="#F49321"/>
<path d="M1263.51 1004.78C1263.51 1004.78 1304.41 935.47 1358.89 949.769C1358.89 949.769 1347.03 1010.19 1263.51 1004.78Z" fill="#F49321"/>
<path d="M686.771 627.416C686.771 627.416 374.236 389.362 349.961 397.606C323.088 406.726 274.716 443.203 274.716 443.203L344.586 417.669C344.586 417.669 289.048 470.562 290.84 466.914C292.631 463.266 358.918 434.084 358.918 434.084L308.755 501.568L371.459 450.499H394.749L353.544 492.448L410.873 463.266L788.888 930.181L982.787 818.432L686.771 627.416Z" fill="#EAA981"/>
<path d="M728.067 1024.77C728.067 1024.77 640.031 1135.66 748.508 1183.45L728.067 1024.77Z" fill="#7F8EB7"/>
<path d="M939.165 576.11V807.233H861.878V609.542L939.165 576.11Z" fill="#EAA981"/>
<path d="M860.712 685.782C860.712 685.782 880.527 678.031 902.204 649.14L861.966 739.55L860.712 685.782Z" fill="#350E16"/>
<path d="M873.09 787.917L672.437 853.577L753.056 1222C753.056 1222 702.893 1484.64 708.268 1484.64H1111.36L1027.16 1225.65L1105.99 842.634L874.881 782.446" fill="#7F8EB7"/>
<path d="M955.2 566.224C941.692 643.703 882.392 699.751 826.854 689.738C790.844 683.227 769.274 649.357 760.728 604.799C758.769 594.386 757.494 583.851 756.912 573.264C756.051 557.36 756.434 541.412 758.059 525.57C765.906 447.307 783.821 447.343 858.672 440.431C952.19 431.804 968.691 488.8 955.2 566.224Z" fill="#EAA981"/>
<path d="M824.915 556.284C825.416 553.423 826.796 550.798 828.857 548.788C830.886 546.722 833.257 545.036 835.862 543.808C838.442 542.576 841.153 541.652 843.942 541.054C846.689 540.434 849.481 540.037 852.29 539.869C855.139 539.65 857.808 539.668 860.495 539.522C863.183 539.376 865.87 539.176 868.468 538.738C871.082 538.418 873.647 537.763 876.1 536.786C877.295 536.307 878.394 535.608 879.342 534.725C879.835 534.285 880.235 533.748 880.518 533.146C880.802 532.544 880.962 531.89 880.991 531.224C881.176 531.944 881.202 532.698 881.065 533.43C880.929 534.162 880.634 534.854 880.202 535.455C879.35 536.682 878.266 537.724 877.013 538.519C874.551 540.034 871.865 541.136 869.059 541.784C866.325 542.443 863.546 542.889 860.746 543.115C857.969 543.352 855.139 543.389 852.523 543.498C847.21 543.678 841.949 544.63 836.901 546.325C834.412 547.181 832.063 548.411 829.932 549.973C827.733 551.58 826 553.76 824.915 556.284Z" fill="#350E16"/>
<path d="M834.969 545.963C834.969 545.963 837.191 562.889 849.176 559.697C861.162 556.505 855.447 541.969 855.447 541.969C855.447 541.969 849.015 536.734 834.969 545.963Z" fill="#350E16"/>
<path d="M855.261 552.037C858.946 551.815 861.868 550.526 861.788 549.158C861.708 547.791 858.657 546.862 854.973 547.085C851.289 547.307 848.367 548.595 848.447 549.963C848.526 551.33 851.577 552.259 855.261 552.037Z" fill="white"/>
<path d="M785.915 557.09C784.663 554.969 782.833 553.265 780.648 552.183C778.541 551.073 776.273 550.316 773.929 549.94C769.185 549.202 764.364 549.116 759.597 549.685L755.763 549.83C754.473 549.83 753.183 549.721 751.911 549.557C750.612 549.352 749.331 549.048 748.077 548.645C747.468 548.426 746.823 548.244 746.286 547.988L744.494 547.04C742.218 545.672 740.358 543.69 739.12 541.313C737.92 539.001 737.403 536.385 737.633 533.78C737.956 536.175 738.859 538.45 740.26 540.402C741.661 542.353 743.516 543.92 745.659 544.961C750.035 546.734 754.787 547.325 759.454 546.675C764.523 546.095 769.652 546.423 774.61 547.642C777.116 548.289 779.48 549.408 781.579 550.943C783.659 552.441 785.185 554.605 785.915 557.09Z" fill="#350E16"/>
<path d="M758.755 519.408C763.911 518.48 769.223 519.26 773.911 521.633C778.639 524.126 782.586 527.917 785.306 532.576C787.991 537.175 789.938 542.181 791.074 547.405C792.202 552.568 792.879 557.823 793.099 563.108C793.242 565.753 793.206 568.379 793.206 571.006V578.794C793.206 581.384 793.206 583.973 793.206 586.563C793.206 589.153 793.367 591.725 793.511 594.315C793.729 599.459 794.395 604.574 795.499 609.599L795.947 611.423C796.109 612.025 796.359 612.609 796.574 613.247C796.987 614.444 797.534 615.589 798.205 616.658C798.58 617.147 798.981 617.616 799.405 618.062C799.866 618.464 800.394 618.779 800.964 618.992C801.552 619.206 802.18 619.281 802.801 619.212C803.421 619.142 804.018 618.93 804.547 618.591C804.03 619.005 803.428 619.294 802.785 619.436C802.143 619.578 801.477 619.57 800.838 619.412C800.191 619.24 799.583 618.943 799.047 618.536C798.537 618.096 798.053 617.628 797.595 617.132C796.798 616.065 796.125 614.909 795.589 613.685C795.32 613.083 794.998 612.481 794.783 611.861L794.156 610.037C792.678 604.984 791.717 599.788 791.289 594.534L790.913 590.612C790.806 589.317 790.77 588.004 790.716 586.691C790.591 584.083 790.429 581.456 790.429 578.848V571.006C790.429 568.434 790.429 565.844 790.268 563.291C790.096 558.166 789.497 553.065 788.477 548.043C787.499 543.056 785.803 538.244 783.442 533.762C781.051 529.315 777.554 525.585 773.302 522.946C768.919 520.288 763.845 519.054 758.755 519.408Z" fill="#350E16"/>
<path d="M746.034 524.53C746.034 524.53 778.461 533.467 782.026 529.637C782.026 529.637 764.612 510.85 747.252 519.277C747.252 519.277 740.695 521.21 746.034 524.53Z" fill="#350E16"/>
<path d="M822.318 530.131C822.318 530.131 844.013 509.905 874.272 513.899C874.29 513.899 862.341 529.183 822.318 530.131Z" fill="#350E16"/>
<path d="M762.534 547.476C762.534 547.476 757.16 563.691 769.414 566.153C781.668 568.615 782.671 553.003 782.671 553.003C782.671 553.003 779.124 545.343 762.534 547.476Z" fill="#350E16"/>
<path d="M779.858 559.077C782.92 558.892 785.348 557.821 785.282 556.685C785.216 555.549 782.68 554.777 779.618 554.962C776.556 555.146 774.128 556.217 774.194 557.354C774.26 558.49 776.796 559.261 779.858 559.077Z" fill="white"/>
<path d="M815.403 641.516C818.306 641.666 821.215 641.605 824.11 641.333C826.893 641.085 829.632 640.472 832.261 639.509C834.851 638.562 837.236 637.113 839.284 635.241C841.397 633.25 843.263 631.002 844.838 628.548C844.221 631.602 842.859 634.449 840.879 636.828L840.126 637.74C839.857 638.032 839.535 638.269 839.248 638.524C838.679 639.063 838.081 639.568 837.457 640.038L835.432 641.26C834.738 641.619 834.027 641.942 833.3 642.227C830.389 643.307 827.295 643.784 824.199 643.631C821.158 643.526 818.168 642.807 815.403 641.516Z" fill="#350E16"/>
<path d="M865.114 593.793C878.271 589.713 887.515 581.657 885.762 575.798C884.01 569.939 871.923 568.497 858.767 572.577C845.61 576.656 836.366 584.713 838.119 590.572C839.871 596.43 851.958 597.873 865.114 593.793Z" fill="#CE5E46"/>
<path d="M782.438 597.123C781.506 605.02 771.563 608.34 759.9 604.838C758.485 594.77 757.481 584.191 756.908 573.266C758.646 573.588 760.359 574.039 762.032 574.616C774.286 578.829 783.513 588.897 782.438 597.123Z" fill="#CE5E46"/>
<path d="M888.318 818.013C888.318 818.013 965.354 883.673 915.191 1312.29" stroke="#350E16" stroke-width="16.8089" stroke-miterlimit="10"/>
<path d="M784.411 1166.38C784.325 1170.5 783.308 1174.54 781.437 1178.19C779.601 1181.87 777.124 1185.18 774.127 1187.95C770.819 1191.01 766.937 1193.35 762.716 1194.84C758.494 1196.32 754.021 1196.92 749.565 1196.6C745.042 1196.26 740.628 1195.02 736.577 1192.95C732.833 1191.01 729.465 1188.39 726.633 1185.23C721.159 1179.31 717.905 1171.61 717.443 1163.49C719.364 1163.94 721.259 1164.5 723.122 1165.15C724.914 1165.72 726.58 1166.28 728.174 1166.89C729.769 1167.49 731.345 1167.98 732.814 1168.53C734.283 1169.07 735.717 1169.57 737.114 1169.93C739.873 1170.86 742.399 1171.45 744.71 1172.03C746.852 1172.47 749.018 1172.77 751.196 1172.94C755.815 1173.27 760.456 1172.91 764.972 1171.87C767.684 1171.28 770.634 1170.52 773.823 1169.57L784.411 1166.38Z" fill="#F76734"/>
<path d="M1090.96 738.675H997.406C875.319 738.675 776.348 839.434 776.348 963.725V1387.27C776.348 1511.56 875.319 1612.32 997.406 1612.32H1090.96C1213.05 1612.32 1312.02 1511.56 1312.02 1387.27V963.725C1312.02 839.434 1213.05 738.675 1090.96 738.675Z" fill="#F76734"/>
<path d="M906.038 1198.29H874.202C832.656 1198.29 798.976 1232.58 798.976 1274.88V1419C798.976 1461.3 832.656 1495.59 874.202 1495.59H906.038C947.585 1495.59 981.265 1461.3 981.265 1419V1274.88C981.265 1232.58 947.585 1198.29 906.038 1198.29Z" fill="#FFD05A"/>
<path d="M801.43 1251.19L817.554 1329.61H959.085L979.688 1255.38" stroke="#350E16" stroke-width="33.6178" stroke-miterlimit="10"/>
<path d="M885.634 1356.97C899.486 1356.97 910.715 1345.54 910.715 1331.44C910.715 1317.33 899.486 1305.9 885.634 1305.9C871.782 1305.9 860.552 1317.33 860.552 1331.44C860.552 1345.54 871.782 1356.97 885.634 1356.97Z" fill="#F76734"/>
<path d="M672.226 857.228L448.498 1318.84C441.771 1332.72 439.215 1348.32 441.153 1363.67C443.091 1379.03 449.435 1393.46 459.391 1405.16L769.184 1747.29L736.632 1623.64L582.559 1344.59L694.835 1175.15C717.968 1140.24 731.608 1099.71 734.368 1057.7C737.128 1015.68 728.909 973.665 710.547 935.929L672.226 857.228Z" fill="#EAA981"/>
<path d="M582.54 1344.6L517.185 1346.88" stroke="#350E16" stroke-width="33.6178" stroke-miterlimit="10"/>
<path d="M736.937 1623.26L840.846 1758.23L790.683 1805.65L692.148 1791.06L781.725 1794.7L805.015 1765.52L774.559 1783.76L688.565 1781.94L772.767 1772.82L788.891 1741.81L763.81 1763.7L695.731 1772.82L756.644 1756.4L711.855 1639.67L736.937 1623.26Z" fill="#EAA981"/>
<path d="M862.342 738.675L861.966 784.491L853.671 794.231L715.095 839.099L857.505 738.986L862.342 738.675Z" fill="#350E16"/>
<path d="M703.79 843.547C706.645 839.655 709.841 836.035 713.338 832.731C716.809 829.368 720.49 826.237 724.356 823.356C732.265 817.437 740.941 812.661 750.137 809.166C754.924 807.362 759.866 806.019 764.899 805.154C770.123 804.206 775.436 803.864 780.736 804.132C791.841 804.647 802.61 808.173 811.927 814.346C820.866 820.446 828.372 828.48 833.909 837.874C836.592 842.299 838.911 846.941 840.842 851.754C841.846 854.107 842.634 856.478 843.494 858.849C844.354 861.22 844.999 863.628 845.608 866.035C850.448 884.895 851.599 904.54 848.994 923.852C845.411 914.897 842.276 906.033 838.926 897.424C835.575 888.815 832.225 880.426 828.427 872.473C820.903 856.624 811.515 842.379 799.297 834.172C793.134 830.096 786.157 827.467 778.873 826.475C775.015 825.944 771.12 825.736 767.228 825.855C763.121 825.995 759.028 826.409 754.974 827.095C746.398 828.589 737.951 830.773 729.713 833.625C721.078 836.488 712.568 839.862 703.79 843.547Z" fill="#F76734"/>
<path d="M796.054 873.643C796.054 873.643 1028.95 804.335 1028.95 1010.43V1291.31H1310.23" stroke="#350E16" stroke-width="33.6178" stroke-miterlimit="10"/>
<path d="M761.155 420.715C752.874 423.155 745.307 427.625 739.116 433.733C732.926 439.841 728.301 447.402 725.647 455.752C720.487 472.678 723.855 492.139 760.224 499.744C792.937 506.584 814.651 502.206 828.499 495.64C835.909 492.151 844.025 490.498 852.184 490.815C860.342 491.132 868.311 493.41 875.438 497.464C888.145 504.584 901.857 509.659 916.088 512.511C960.876 521.631 867.716 640.184 899.964 662.07C932.212 683.957 740.517 1017.73 903.547 1050.56C1066.58 1083.39 1075.54 1090.68 1165.11 999.489C1254.69 908.295 1068.37 891.88 1109.57 771.503C1150.22 652.732 1028.95 556.285 1005.66 547.165C982.877 538.246 1036.64 336.269 761.155 420.715Z" fill="#350E16"/>
<path d="M925.636 580.696C943.754 579.858 957.676 562.008 956.731 540.826C955.786 519.644 940.333 503.151 922.215 503.989C904.097 504.827 890.176 522.677 891.12 543.859C892.065 565.041 907.519 581.533 925.636 580.696Z" fill="#EAA981"/>
<path d="M915.875 554.095C916.678 550.817 917.881 547.656 919.458 544.684C921.04 541.68 922.912 538.845 925.047 536.221C927.215 533.585 929.701 531.238 932.446 529.235C935.207 527.244 938.362 525.893 941.691 525.277C938.956 527.016 936.383 529.007 934.005 531.223C931.7 533.448 929.529 535.811 927.502 538.3C925.423 540.762 923.542 543.407 921.59 546.033L915.875 554.095Z" fill="#350E16"/>
<path d="M930.422 558.308C931.841 556.555 932.786 554.455 933.163 552.216C933.394 551.141 933.544 550.049 933.611 548.951C933.611 548.404 933.736 547.857 933.736 547.291V545.632C933.736 543.388 933.593 541.108 933.45 538.792C933.324 537.643 933.306 536.476 933.199 535.29C933.086 534.078 933.038 532.86 933.056 531.642C933.674 532.689 934.231 533.774 934.722 534.889C935.172 536.011 935.567 537.155 935.904 538.318C936.28 539.485 936.406 540.707 936.675 541.966C936.943 543.224 936.925 544.428 936.943 545.613C936.953 548.119 936.466 550.6 935.51 552.909C935.099 554.131 934.431 555.248 933.552 556.18C932.673 557.113 931.605 557.839 930.422 558.308Z" fill="#350E16"/>
<path d="M934.22 470.728C934.22 470.728 896.06 532.302 906.666 554.627C916.985 576.295 855.768 576.149 871.48 616.876C871.964 618.135 872.519 619.429 873.164 620.779C873.164 620.779 840.254 590.667 889.539 558.913L912.506 459.347L934.22 470.728Z" fill="#350E16"/>
<path d="M672.437 857.228C672.437 857.228 785 998.379 707.229 1153.96L690.352 1178.23C690.352 1178.23 744.099 1010.43 672.437 857.228Z" fill="#350E16"/>
<path d="M1217.96 1353.32C1228.35 1353.32 1236.77 1327.6 1236.77 1295.87C1236.77 1264.14 1228.35 1238.42 1217.96 1238.42C1207.57 1238.42 1199.15 1264.14 1199.15 1295.87C1199.15 1327.6 1207.57 1353.32 1217.96 1353.32Z" fill="#FFD05A"/>
<path d="M863.846 0.000142686C849.826 0.0188621 836.006 3.38748 823.499 9.83496C810.991 16.2824 800.144 25.6288 791.831 37.122C783.519 48.6152 777.972 61.9344 775.637 76.008C773.302 90.0816 774.245 104.517 778.389 118.152L859.277 383.016L948.335 120.924C953.042 107.204 954.45 92.5353 952.442 78.1471C950.434 63.7589 945.068 50.0702 936.794 38.2278C928.52 26.3854 917.578 16.7343 904.886 10.0832C892.194 3.43197 878.121 -0.0255988 863.846 0.000142686ZM862.341 156.854C849.939 156.854 837.816 153.111 827.505 146.096C817.193 139.082 809.156 129.112 804.41 117.447C799.664 105.783 798.422 92.9476 800.842 80.5646C803.261 68.1816 809.233 56.8071 818.003 47.8795C826.772 38.9518 837.945 32.8721 850.108 30.4089C862.271 27.9458 874.879 29.21 886.337 34.0416C897.794 38.8732 907.587 47.0552 914.477 57.553C921.367 68.0508 925.045 80.3928 925.045 93.0184C925.045 109.949 918.439 126.186 906.679 138.157C894.92 150.129 878.971 156.854 862.341 156.854Z" fill="#FFD05A"/>
<path d="M1522.19 1454.04C1507.39 1467.08 1493.06 1480.65 1478.92 1494.42C1464.78 1508.19 1450.86 1522.2 1437.25 1536.5C1409.9 1564.97 1383.38 1594.25 1357.69 1624.32C1332 1654.39 1307.16 1685.14 1283.18 1716.57C1280.18 1720.51 1277.14 1724.39 1274.22 1728.37L1265.44 1740.28C1259.56 1748.23 1253.62 1756.15 1247.94 1764.24C1242.26 1772.34 1236.42 1780.31 1230.76 1788.43L1213.92 1812.94C1211.1 1816.99 1208.4 1821.15 1205.69 1825.27L1197.54 1837.67L1189.39 1850.08L1181.49 1862.64C1176.27 1871.05 1170.9 1879.37 1165.79 1887.83L1150.55 1913.37L1146.75 1919.73L1143.17 1926.19L1135.84 1939.1C1130.97 1947.73 1125.99 1956.26 1121.4 1965.04L1107.35 1991.21C1102.8 1999.98 1098.4 2008.86 1093.94 2017.69L1087.24 2030.95L1080.88 2044.38L1068.19 2071.22L1056.24 2098.42L1050.29 2112.02L1044.72 2125.79L1033.6 2153.33L1023.26 2181.19L1018.12 2195.12L1013.41 2209.2L1003.87 2237.27L992.606 2233.49L1002.48 2205.21L1007.4 2191.07L1012.78 2177.1L1023.53 2149.16L1035.08 2121.56L1040.89 2107.77L1047.03 2094.15L1059.39 2066.94L1072.49 2040.09L1079.05 2026.68L1085.95 2013.44C1090.57 2004.61 1095.08 1995.75 1099.79 1987L1114.22 1960.88C1118.95 1952.12 1124.05 1943.61 1129.05 1935.02L1136.57 1922.14L1140.34 1915.7L1144.22 1909.35L1159.85 1883.96C1165.1 1875.54 1170.6 1867.26 1175.97 1858.9L1184.05 1846.39L1192.38 1834.06L1200.71 1821.72C1203.47 1817.61 1206.25 1813.49 1209.13 1809.44L1226.24 1785.11C1232.01 1777.05 1237.94 1769.1 1243.78 1761.09C1249.62 1753.08 1255.62 1745.2 1261.7 1737.38L1270.65 1725.54C1273.66 1721.6 1276.76 1717.75 1279.81 1713.85C1304.22 1682.64 1329.48 1652.15 1355.59 1622.4C1381.7 1592.65 1408.61 1563.68 1436.32 1535.51C1450.13 1521.38 1464.27 1507.59 1478.54 1493.94C1492.82 1480.3 1507.3 1466.88 1522.19 1454.04Z" fill="#613E78"/>
<path d="M1378.41 1599.55C1378.41 1599.55 1485.05 1594.22 1510.22 1666.85C1510.22 1666.92 1435.01 1698.7 1378.41 1599.55Z" fill="#613E78"/>
<path d="M1400.73 1574.33C1400.73 1574.33 1319.18 1504.16 1349.48 1433.58C1349.48 1433.58 1425.74 1462.58 1400.73 1574.33Z" fill="#613E78"/>
<path d="M1312.02 1680.09C1312.02 1680.09 1230.51 1609.93 1260.76 1539.34C1260.75 1539.36 1337.1 1568.34 1312.02 1680.09Z" fill="#613E78"/>
<path d="M1238.14 1774.64C1238.14 1774.64 1328.56 1716.88 1385.44 1767.66C1385.47 1767.66 1335.13 1832.84 1238.14 1774.64Z" fill="#613E78"/>
<path d="M1190.84 1843.29C1190.84 1843.29 1118.19 1763.68 1156.55 1697.29C1156.55 1697.29 1228.85 1735.41 1190.84 1843.29Z" fill="#613E78"/>
<path d="M1120.22 1956.77C1120.22 1956.77 1190.19 1874.7 1259.13 1906.42C1259.13 1906.42 1229.61 1983.69 1120.22 1956.77Z" fill="#613E78"/>
<path d="M740.982 2726.14L912.504 2889.04L1024.49 2754.76L1117.72 2818.47L1127.95 2997.89L725.646 2900.38L740.982 2726.14Z" fill="#350E16"/>
<path d="M1115.18 2714.46L1111.37 2639.17L1077.88 2685.88L1115.18 2714.46Z" fill="#350E16"/>
<path d="M1125.7 3003.94C1125.7 3003.94 1100.22 3092.2 1105.99 3095.14C1109.57 3096.96 1120.9 3086.02 1131.36 3074.16L1131.07 3106.08L1094.74 3106.24C1094.74 3106.24 1107.78 3029.48 1125.7 3003.94Z" fill="#350E16"/>
<path d="M803.561 1910.92L1075.53 1625.09L1084.53 1843.31L800.999 1981.14L803.561 1910.92Z" fill="#350E16"/>
</svg>
